<?xml version="1.0" encoding="UTF-8"?>
<!DOCTYPE svg PUBLIC "-//W3C//DTD SVG 1.0//EN" "http://www.w3.org/TR/2001/REC-SVG-20010904/DTD/svg10.dtd">
<!-- Creator: CorelDRAW X7 -->
<svg xmlns="http://www.w3.org/2000/svg" xml:space="preserve" width="16.9333mm" height="11.5594mm" version="1.0" style="shape-rendering:geometricPrecision; text-rendering:geometricPrecision; image-rendering:optimizeQuality; fill-rule:evenodd; clip-rule:evenodd"
viewBox="0 0 882 602"
 xmlns:xlink="http://www.w3.org/1999/xlink">
 <defs>
  <style type="text/css">
   <![CDATA[
    .fil0 {fill:#673AB7}
   ]]>
  </style>
 </defs>
 <g id="Camada_x0020_1">
  <metadata id="CorelCorpID_0Corel-Layer"/>
  <path class="fil0" d="M834 472l8 0c3,0 6,1 7,3 2,3 2,5 1,8l-42 112c-1,3 -4,6 -8,6l-7 0c-4,0 -7,-3 -8,-6l-42 -112c-1,-3 -1,-5 1,-8 1,-2 4,-3 7,-3l8 0c4,0 7,2 8,5l29 87 30 -87c1,-3 4,-5 8,-5zm30 102l10 0c5,0 8,4 8,8l0 10c0,5 -3,9 -8,9l-10 0c-5,0 -8,-4 -8,-9l0 -10c0,-4 3,-8 8,-8zm-448 -301c-4,-5 -4,-13 1,-18 6,-5 14,-4 19,1l13 15 119 -131c22,-24 23,-52 12,-74 -4,-10 -11,-19 -20,-26 -9,-7 -19,-12 -29,-13 -23,-4 -49,6 -71,39 -4,6 -12,8 -18,4 -2,-1 -3,-2 -4,-4 -22,-33 -48,-43 -71,-39 -10,1 -20,6 -29,13 -8,7 -15,16 -20,26 -10,22 -9,50 13,74 4,6 4,14 -1,19 -6,4 -14,4 -19,-1 -30,-33 -31,-72 -17,-103 7,-14 16,-26 28,-35 12,-10 26,-16 41,-19 28,-4 60,5 86,37 27,-32 58,-41 86,-37 15,3 29,9 41,19 12,9 22,21 28,35 14,31 13,70 -17,103l-128 141 0 0 0 0c0,0 -1,0 -1,1 -5,4 -14,4 -18,-1l-24 -26zm-159 3l129 -148c2,-2 4,-3 7,-3l13 0c3,0 6,2 8,5 1,3 0,7 -2,9l-129 148c-1,2 -4,3 -6,3l-13 0c-4,0 -7,-2 -8,-5 -1,-3 -1,-6 1,-9zm88 0l129 -148c1,-2 3,-3 6,-3l13 0c4,0 7,2 8,5 1,3 1,7 -1,9l-130 148c-1,2 -3,3 -6,3l-13 0c-3,0 -6,-2 -8,-5 -1,-3 -1,-6 2,-9zm-320 291c0,3 1,6 2,8 2,1 4,2 6,2l4 0c4,0 8,4 8,8l0 8c0,4 -4,8 -8,8l-7 0c-9,0 -17,-3 -22,-9 -5,-6 -8,-14 -8,-25l0 -138c0,-5 4,-9 8,-9l9 0c5,0 8,4 8,9l0 138zm57 -95l8 0c5,0 9,4 9,8l0 112c0,5 -4,9 -9,9l-8 0c-5,0 -8,-4 -8,-9l0 -112c0,-4 3,-8 8,-8zm0 -52l8 0c5,0 9,4 9,9l0 8c0,5 -4,9 -9,9l-8 0c-5,0 -8,-4 -8,-9l0 -8c0,-5 3,-9 8,-9zm133 103c0,-10 -2,-17 -7,-22 -4,-4 -11,-7 -19,-7 -9,0 -15,2 -20,7 -4,4 -6,10 -6,18l0 0 0 73c0,5 -4,9 -9,9l-8 0c-5,0 -9,-4 -9,-9l0 -112c0,-4 4,-8 9,-8l8 0c5,0 9,4 9,8l0 10c3,-6 7,-10 13,-14 6,-4 13,-6 21,-6 14,0 25,5 32,14 8,9 12,22 12,38l0 70c0,5 -4,9 -9,9l-8 0c-5,0 -9,-4 -9,-9l0 -69zm128 -3l42 68c1,2 1,6 0,8 -2,3 -4,5 -8,5l-7 0c-3,0 -6,-2 -8,-4l-35 -59 -23 26 0 28c0,5 -3,9 -8,9l-8 0c-5,0 -9,-4 -9,-9l0 -163c0,-5 4,-9 9,-9l8 0c5,0 8,4 8,9l0 105 50 -59c1,-2 4,-3 6,-3l7 0c4,0 7,2 8,5 1,3 1,6 -1,9l-31 34zm116 82c-8,0 -15,0 -21,-2 -10,-2 -20,-6 -28,-12 -2,-1 -3,-3 -4,-6 0,-2 1,-4 2,-6l5 -6c3,-3 7,-4 11,-2 5,3 10,6 15,8 7,2 13,4 20,4 10,0 18,-2 23,-5 5,-3 7,-8 7,-14 0,-4 -1,-7 -4,-9 -3,-2 -6,-4 -10,-4 -15,-3 -30,-2 -45,-6 -6,-2 -10,-5 -14,-10 -4,-5 -6,-12 -6,-21 0,-9 2,-17 6,-23 3,-6 9,-10 16,-13 8,-3 17,-5 28,-5 7,0 13,1 19,2 9,2 17,5 25,9 2,2 4,3 4,6 1,3 0,5 -1,7l-5 6c-3,3 -7,3 -11,2 -4,-3 -8,-5 -13,-6 -6,-2 -12,-3 -18,-3 -9,0 -15,1 -19,4 -5,3 -7,7 -7,13 0,4 1,6 4,8 2,2 5,3 9,4 15,2 28,1 44,5 6,2 11,5 16,11 4,5 6,13 6,23 0,9 -2,17 -6,23 -4,6 -10,11 -18,14 -8,3 -18,4 -30,4zm85 -130l5 0 0 -18c0,-11 3,-20 8,-25 5,-6 13,-9 24,-9l10 0c5,0 9,4 9,9l0 7c0,5 -4,8 -9,8l-9 0c-3,0 -5,1 -6,3 -1,2 -2,4 -2,7l0 18 17 0c5,0 9,4 9,8l0 5c0,5 -4,8 -9,8l-17 0 0 99c0,5 -4,9 -8,9l-9 0c-4,0 -8,-4 -8,-9l0 -99 -5 0c-5,0 -9,-3 -9,-8l0 -5c0,-4 4,-8 9,-8zm118 130c-16,0 -28,-3 -36,-9 -8,-7 -11,-17 -11,-30 0,-13 3,-23 10,-29 8,-6 18,-10 33,-10l35 0 0 -5c0,-8 -2,-15 -6,-20 -5,-4 -11,-7 -20,-7 -8,0 -16,2 -23,6 -3,2 -7,2 -9,0l-6 -4c-2,-1 -3,-4 -3,-6 0,-3 1,-6 3,-7 11,-8 25,-11 38,-11 10,0 20,2 27,6 8,3 14,9 18,16 4,7 5,16 5,26l0 74c0,5 -3,9 -8,9l-7 0c-5,0 -9,-4 -9,-9l0 -1c-1,2 -3,3 -5,5 -3,2 -7,4 -12,5 -4,1 -9,1 -14,1zm31 -57l-35 0c-7,0 -11,1 -15,4 -3,3 -5,8 -5,14 0,6 3,11 7,14 4,3 11,5 20,5 9,0 17,-1 21,-3 5,-2 7,-5 7,-10l0 0 0 -24z"/>
 </g>
</svg>
