<?xml version="1.0" encoding="UTF-8"?>
<!DOCTYPE svg PUBLIC "-//W3C//DTD SVG 1.0//EN" "http://www.w3.org/TR/2001/REC-SVG-20010904/DTD/svg10.dtd">
<!-- Creator: CorelDRAW X7 -->
<svg xmlns="http://www.w3.org/2000/svg" xml:space="preserve" width="25.4mm" height="5.719mm" version="1.0" style="shape-rendering:geometricPrecision; text-rendering:geometricPrecision; image-rendering:optimizeQuality; fill-rule:evenodd; clip-rule:evenodd"
viewBox="0 0 747 168"
 xmlns:xlink="http://www.w3.org/1999/xlink">
 <defs>
  <style type="text/css">
   <![CDATA[
    .fil0 {fill:#673AB7}
   ]]>
  </style>
 </defs>
 <g id="Camada_x0020_1">
  <metadata id="CorelCorpID_0Corel-Layer"/>
  <path class="fil0" d="M720 65l4 0c2,0 3,0 4,2 1,1 1,3 1,4l-24 64c-1,1 -2,3 -4,3l-5 0c-2,0 -3,-2 -4,-3l-24 -64c0,-1 0,-3 1,-4 1,-2 2,-2 4,-2l4 0c2,0 4,1 5,3l17 49 16 -49c1,-2 3,-3 5,-3zm-630 87c-3,-3 -3,-8 0,-10 3,-3 8,-3 10,0l8 8 66 -72c12,-13 12,-29 7,-41 -6,-11 -16,-20 -28,-22 -13,-2 -27,4 -39,22 -3,3 -7,4 -10,2 -1,-1 -2,-1 -2,-2 -13,-19 -27,-24 -40,-22 -12,2 -22,11 -27,22 -6,12 -5,28 7,41 3,3 2,7 -1,10 -3,3 -7,3 -10,0 -16,-19 -17,-40 -9,-57 7,-16 21,-28 38,-30 16,-3 33,2 48,20 14,-18 32,-23 47,-20 17,2 32,14 39,30 8,17 7,38 -10,57l-71 78c-3,3 -8,3 -11,0l-12 -14zm-89 1l72 -82c1,-1 2,-1 3,-1l8 0c2,0 3,1 4,2 1,2 0,4 -1,5l-71 82c-1,1 -3,2 -4,2l-7 0c-2,0 -4,-1 -5,-3 0,-1 0,-3 1,-5zm49 0l71 -82c1,-1 2,-1 4,-1l7 0c2,0 4,1 4,2 1,2 1,4 0,5l-72 82c-1,1 -2,2 -3,2l-8 0c-2,0 -3,-1 -4,-3 -1,-1 -1,-3 1,-5zm687 -31l5 0c3,0 5,3 5,5l0 6c0,2 -2,5 -5,5l-5 0c-3,0 -5,-3 -5,-5l0 -6c0,-2 2,-5 5,-5zm-475 -3c0,2 0,3 1,4 1,1 2,1 3,1l2 0c3,0 5,2 5,5l0 4c0,3 -2,5 -5,5l-4 0c-5,0 -9,-2 -12,-5 -3,-3 -5,-8 -5,-14l0 -79c0,-2 2,-5 5,-5l5 0c2,0 5,3 5,5l0 79zm32 -54l5 0c2,0 4,2 4,4l0 64c0,2 -2,5 -4,5l-5 0c-3,0 -5,-3 -5,-5l0 -64c0,-2 2,-4 5,-4zm0 -30l5 0c2,0 4,3 4,5l0 5c0,3 -2,5 -4,5l-5 0c-3,0 -5,-2 -5,-5l0 -5c0,-2 2,-5 5,-5zm75 58c0,-5 -1,-9 -4,-12 -2,-2 -6,-4 -11,-4 -5,0 -8,2 -11,4 -2,2 -4,6 -4,10l0 0 0 42c0,2 -2,5 -4,5l-5 0c-3,0 -5,-3 -5,-5l0 -64c0,-2 2,-4 5,-4l5 0c2,0 4,2 4,4l0 6c2,-3 5,-6 8,-8 3,-2 7,-3 12,-3 8,0 14,2 18,7 4,6 7,13 7,22l0 40c0,2 -2,5 -5,5l-5 0c-3,0 -5,-3 -5,-5l0 -40zm73 -1l23 38c1,2 1,4 0,5 -1,2 -2,3 -4,3l-4 0c-2,0 -4,-1 -4,-3l-20 -33 -13 15 0 16c0,2 -2,5 -5,5l-5 0c-2,0 -5,-3 -5,-5l0 -93c0,-2 3,-5 5,-5l5 0c3,0 5,3 5,5l0 60 28 -34c1,-1 2,-1 3,-1l4 0c2,0 4,1 5,2 1,2 0,4 -1,6l-17 19zm65 47c-4,0 -8,-1 -12,-2 -6,-1 -11,-3 -16,-7 -1,0 -1,-1 -1,-3 -1,-1 0,-2 1,-3l2 -4c2,-2 4,-2 7,-1 2,2 5,3 8,5 4,1 8,2 11,2 6,0 10,-1 13,-3 3,-2 4,-4 4,-8 0,-2 0,-4 -2,-5 -2,-1 -3,-2 -6,-2 -8,-2 -17,-1 -25,-4 -3,-1 -6,-3 -8,-5 -2,-3 -3,-7 -3,-12 0,-5 1,-10 3,-13 2,-4 5,-6 9,-8 4,-1 10,-2 16,-2 4,0 7,0 11,1 5,1 9,3 14,5 1,1 2,2 2,3 0,2 0,3 -1,4l-2 3c-2,2 -4,3 -6,2 -3,-2 -5,-3 -8,-4 -3,-1 -7,-2 -10,-2 -5,0 -9,1 -11,3 -3,2 -4,4 -4,7 0,2 1,4 2,5 2,1 3,2 6,2 8,1 16,0 24,3 4,1 7,3 9,6 3,3 4,8 4,13 0,6 -1,10 -3,13 -3,4 -6,6 -11,8 -4,2 -10,3 -17,3zm48 -74l3 0 0 -10c0,-7 2,-12 5,-15 3,-3 7,-5 13,-5l6 0c3,0 5,3 5,5l0 4c0,3 -2,5 -5,5l-5 0c-2,0 -3,1 -3,2 -1,1 -1,2 -1,4l0 10 9 0c3,0 5,2 5,4l0 3c0,3 -2,5 -5,5l-9 0 0 56c0,2 -3,5 -5,5l-5 0c-3,0 -5,-3 -5,-5l0 -56 -3 0c-2,0 -4,-2 -4,-5l0 -3c0,-2 2,-4 4,-4zm67 74c-9,0 -15,-2 -20,-6 -4,-4 -7,-9 -7,-17 0,-7 2,-13 7,-16 4,-4 10,-6 18,-6l20 0 0 -3c0,-4 -1,-8 -4,-11 -2,-2 -6,-4 -11,-4 -4,0 -9,1 -13,4 -2,1 -4,1 -5,0l-3 -3c-1,0 -2,-2 -2,-3 0,-2 1,-3 2,-4 6,-5 14,-6 21,-6 6,0 11,1 16,3 4,2 7,5 9,9 3,4 4,9 4,15l0 42c0,2 -2,5 -5,5l-4 0c-3,0 -5,-3 -5,-5l0 -1c-1,1 -2,2 -3,3 -2,1 -4,2 -7,3 -2,0 -5,1 -8,1zm18 -33l-20 0c-4,0 -6,1 -8,3 -2,1 -3,4 -3,7 0,4 1,7 4,8 2,2 6,3 11,3 5,0 9,-1 12,-2 3,-1 4,-3 4,-5l0 0 0 -14z"/>
 </g>
</svg>
